<?xml version="1.0" encoding="utf-8"?>
<!-- Generator: Adobe Illustrator 27.2.0, SVG Export Plug-In . SVG Version: 6.00 Build 0)  -->
<svg version="1.1" id="Layer_1" xmlns="http://www.w3.org/2000/svg" xmlns:xlink="http://www.w3.org/1999/xlink" x="0px" y="0px"
	 viewBox="0 0 500 500" style="enable-background:new 0 0 500 500;" xml:space="preserve">
<style type="text/css">
	.st0{clip-path:url(#SVGID_00000070819106148146744050000001002318195159836578_);}
	.st1{clip-path:url(#SVGID_00000062163519153873202740000008859123940819585448_);}
	.st2{fill:none;}
</style>
<g>
	<g>
		<g transform="translate(119.277294, 180.749988)">
			<g>
				<path d="M80.3,41.2c-2.5,0-4.6-0.5-6.3-1.6c-1.7-1-3.1-2.5-4.1-4.4c-0.9-1.9-1.4-4.1-1.4-6.5c0-2.5,0.5-4.6,1.4-6.5
					c1-1.9,2.3-3.4,4.1-4.4c1.8-1.1,3.9-1.6,6.3-1.6c2.9,0,5.3,0.7,7.2,2.2c1.9,1.4,3,3.5,3.5,6h-4.9c-0.3-1.3-1-2.3-1.9-3.1
					c-1-0.8-2.3-1.1-3.9-1.1c-2.3,0-4,0.8-5.3,2.3c-1.3,1.5-2,3.6-2,6.3c0,2.6,0.6,4.7,1.9,6.2s3,2.3,5.3,2.3c1.6,0,2.9-0.3,3.9-1
					s1.6-1.7,1.9-2.9h5c-0.5,2.5-1.6,4.4-3.5,5.8C85.6,40.5,83.2,41.2,80.3,41.2z"/>
			</g>
		</g>
	</g>
	<g>
		<g transform="translate(139.982327, 180.749988)">
			<g>
				<path d="M90.2,41.2c-2.4,0-4.6-0.5-6.4-1.6s-3.3-2.5-4.3-4.4S78,31.1,78,28.7c0-2.5,0.5-4.6,1.5-6.5s2.5-3.3,4.3-4.4
					s3.9-1.6,6.4-1.6c2.4,0,4.5,0.5,6.3,1.6s3.3,2.5,4.3,4.4s1.5,4,1.5,6.5s-0.5,4.6-1.5,6.5s-2.4,3.3-4.3,4.4
					C94.7,40.7,92.6,41.2,90.2,41.2z M90.2,37.2c2.3,0,4.2-0.8,5.5-2.3c1.4-1.5,2.1-3.6,2.1-6.3c0-2.6-0.7-4.7-2.1-6.2
					s-3.2-2.3-5.5-2.3s-4.2,0.8-5.6,2.3s-2.1,3.6-2.1,6.2c0,2.7,0.7,4.7,2.1,6.3S87.9,37.2,90.2,37.2z"/>
			</g>
		</g>
	</g>
	<g>
		<g transform="translate(161.97387, 180.749988)">
			<g>
				<path d="M88.9,40.8V16.6h5.3l7.8,15.3l7.6-15.3h5.3v24.2h-4.4V24.1l-6.8,13.2h-3.5l-6.8-13.2v16.7H88.9z"/>
			</g>
		</g>
	</g>
	<g>
		<g transform="translate(186.157254, 180.749988)">
			<g>
				<path d="M100,40.8V16.6h5.3L113,32l7.6-15.3h5.3v24.2h-4.4V24.1l-6.8,13.2h-3.5l-6.8-13.2v16.7H100z"/>
			</g>
		</g>
	</g>
	<g>
		<g transform="translate(210.340638, 180.749988)">
			<g>
				<path d="M111.1,40.8V16.6H127v3.6h-11.4v6.6H126v3.5h-10.4v7H127v3.6h-15.9V40.8z"/>
			</g>
		</g>
	</g>
	<g>
		<g transform="translate(227.257625, 180.749988)">
			<g>
				<path d="M118.8,40.8V16.6h8.9c1.9,0,3.5,0.3,4.8,1c1.3,0.7,2.2,1.5,2.8,2.6s0.9,2.4,0.9,3.7c0,1.5-0.4,2.8-1.2,4.1
					c-0.8,1.2-2,2.1-3.6,2.6l5,10.1h-5.1l-4.5-9.5h-3.7v9.5L118.8,40.8L118.8,40.8z M123.3,28h4.2c1.5,0,2.6-0.4,3.3-1.1
					s1-1.7,1-2.9c0-1.1-0.3-2.1-1-2.7c-0.7-0.7-1.8-1-3.3-1h-4.2V28z"/>
			</g>
		</g>
	</g>
	<g>
		<g transform="translate(245.246684, 180.749988)">
			<g>
				<path d="M156.5,40.8V16.6h4.4v24.2C160.9,40.9,156.5,40.9,156.5,40.8z"/>
			</g>
		</g>
	</g>
	<g>
		<g transform="translate(254.682829, 180.749988)">
			<g>
				<path d="M126.2,41.2c-2.5,0-4.6-0.5-6.3-1.6c-1.7-1-3.1-2.5-4.1-4.4c-0.9-1.9-1.4-4.1-1.4-6.5c0-2.5,0.5-4.6,1.4-6.5
					c1-1.9,2.3-3.4,4.1-4.4c1.8-1.1,3.9-1.6,6.3-1.6c2.9,0,5.3,0.7,7.2,2.2c1.9,1.4,3,3.5,3.5,6H132c-0.3-1.3-1-2.3-1.9-3.1
					c-1-0.8-2.3-1.1-3.9-1.1c-2.3,0-4,0.8-5.3,2.3s-1.9,3.6-1.9,6.2s0.6,4.7,1.9,6.2c1.3,1.5,3,2.3,5.3,2.3c1.6,0,2.9-0.3,3.9-1
					s1.6-1.7,1.9-2.9h4.9c-0.5,2.5-1.6,4.4-3.5,5.8C131.5,40.5,129.1,41.2,126.2,41.2z"/>
			</g>
		</g>
	</g>
	<g>
		<g transform="translate(275.387856, 180.749988)">
			<g>
				<path d="M139.3,40.8l8.9-24.2h5l8.9,24.2h-4.7l-1.9-5.6H146l-2,5.6H139.3z M147.2,31.7h7l-3.5-10L147.2,31.7z"/>
			</g>
		</g>
	</g>
	<g>
		<g transform="translate(295.235229, 180.749988)">
			<g>
				<path d="M150,40.8V16.6h4.4v20.7h10.8v3.4L150,40.8L150,40.8z"/>
			</g>
		</g>
	</g>
	<g>
		<g transform="translate(119.277294, 210.749986)">
			<g>
				<path d="M69.5,54.3V30.1h2.9v24.2C72.4,54.3,69.5,54.3,69.5,54.3z"/>
			</g>
		</g>
	</g>
	<g>
		<g transform="translate(127.951073, 210.749986)">
			<g>
				<path d="M73.5,54.3V30.1h2.9l13,19.4V30.1h2.9v24.2h-2.9l-13-19.4v19.4C76.4,54.3,73.5,54.3,73.5,54.3z"/>
			</g>
		</g>
	</g>
	<g>
		<g transform="translate(147.512544, 210.749986)">
			<g>
				<path d="M90.2,54.7c-1.8,0-3.3-0.3-4.7-1c-1.3-0.6-2.3-1.5-3.1-2.7c-0.7-1.2-1.1-2.5-1.1-4h3.1c0,0.9,0.2,1.8,0.7,2.6
					c0.4,0.8,1.1,1.4,1.9,1.9s1.9,0.7,3.1,0.7c1.6,0,2.9-0.4,3.8-1.2s1.4-1.8,1.4-2.9c0-1-0.2-1.7-0.6-2.3s-1-1.1-1.7-1.4
					c-0.7-0.4-1.5-0.7-2.4-1s-1.9-0.6-2.9-1c-1.9-0.6-3.3-1.4-4.2-2.4c-0.9-1-1.3-2.2-1.3-3.8c0-1.3,0.3-2.4,0.9-3.4
					s1.5-1.8,2.7-2.4c1.1-0.6,2.5-0.9,4.1-0.9c1.5,0,2.9,0.3,4,0.9c1.2,0.6,2.1,1.4,2.7,2.4s1,2.2,1,3.4h-3.1c0-0.7-0.2-1.3-0.5-2
					c-0.4-0.7-0.9-1.2-1.6-1.6c-0.7-0.4-1.6-0.6-2.6-0.6c-1.3,0-2.4,0.3-3.3,1s-1.3,1.7-1.3,2.9c0,1,0.3,1.8,0.9,2.4
					c0.6,0.6,1.4,1,2.5,1.4s2.3,0.7,3.7,1.2c1.2,0.4,2.2,0.9,3.1,1.5c0.9,0.5,1.6,1.3,2.2,2.1c0.5,0.9,0.8,2,0.8,3.4
					c0,1.1-0.3,2.2-0.9,3.3c-0.6,1-1.5,1.9-2.7,2.5C93.5,54.4,92,54.7,90.2,54.7z"/>
			</g>
		</g>
	</g>
	<g>
		<g transform="translate(164.429526, 210.749986)">
			<g>
				<path d="M99,54.7c-1.7,0-3.2-0.3-4.6-1C93.1,53,92,52,91.2,50.6S90,47.5,90,45.3V30.1h2.9v15.3c0,2.4,0.6,4.1,1.7,5.1
					c1.1,1.1,2.6,1.6,4.5,1.6c1.8,0,3.3-0.5,4.4-1.6s1.7-2.8,1.7-5.1V30.1h2.9v15.3c0,2.1-0.4,3.9-1.2,5.3c-0.8,1.4-1.9,2.4-3.3,3.1
					C102.2,54.3,100.7,54.7,99,54.7z"/>
			</g>
		</g>
	</g>
	<g>
		<g transform="translate(183.204799, 210.749986)">
			<g>
				<path d="M98.8,54.3V30.1h2.9V52H113v2.3H98.8z"/>
			</g>
		</g>
	</g>
	<g>
		<g transform="translate(198.859085, 210.749986)">
			<g>
				<path d="M104.5,54.3l9-24.2h3.1l8.9,24.2h-3.1l-2.2-6.2h-10.4l-2.3,6.2H104.5z M110.6,45.7h8.6l-4.3-12L110.6,45.7z"/>
			</g>
		</g>
	</g>
	<g>
		<g transform="translate(217.824948, 210.749986)">
			<g>
				<path d="M120.4,54.3V32.5h-7.3v-2.4h17.5v2.4h-7.3v21.8H120.4z"/>
			</g>
		</g>
	</g>
	<g>
		<g transform="translate(234.313091, 210.749986)">
			<g>
				<path d="M122.2,54.3V30.1h2.9v24.2C125.1,54.3,122.2,54.3,122.2,54.3z"/>
			</g>
		</g>
	</g>
	<g>
		<g transform="translate(242.986865, 210.749986)">
			<g>
				<path d="M137.3,54.7c-2.4,0-4.5-0.5-6.3-1.6c-1.8-1-3.2-2.5-4.2-4.4s-1.5-4.1-1.5-6.5c0-2.5,0.5-4.6,1.5-6.5s2.4-3.3,4.2-4.4
					s3.9-1.6,6.3-1.6c2.4,0,4.5,0.5,6.3,1.6s3.2,2.5,4.2,4.4c1,1.9,1.5,4,1.5,6.5s-0.5,4.6-1.5,6.5s-2.4,3.4-4.2,4.4
					C141.8,54.1,139.7,54.7,137.3,54.7z M137.3,52.1c1.8,0,3.3-0.4,4.7-1.2s2.4-1.9,3.2-3.4s1.1-3.3,1.1-5.3c0-2.1-0.4-3.8-1.1-5.3
					c-0.7-1.5-1.8-2.6-3.2-3.4c-1.4-0.8-2.9-1.2-4.7-1.2s-3.4,0.4-4.7,1.2c-1.4,0.8-2.4,1.9-3.2,3.4c-0.7,1.5-1.1,3.2-1.1,5.3
					s0.4,3.9,1.1,5.3c0.8,1.5,1.8,2.6,3.2,3.4C133.9,51.7,135.5,52.1,137.3,52.1z"/>
			</g>
		</g>
	</g>
	<g>
		<g transform="translate(264.81164, 210.749986)">
			<g>
				<path d="M136.2,54.3V30.1h2.9l13,19.4V30.1h2.9v24.2h-2.9l-13-19.4v19.4C139.1,54.3,136.2,54.3,136.2,54.3z"/>
			</g>
		</g>
	</g>
</g>
<g>
	<g>
		<g>
			<g>
				<defs>
					<rect id="SVGID_1_" x="36.3" y="166.8" width="111.8" height="108.6"/>
				</defs>
				<clipPath id="SVGID_00000047761456827402979340000010252771297765756331_">
					<use xlink:href="#SVGID_1_"  style="overflow:visible;"/>
				</clipPath>
				<g style="clip-path:url(#SVGID_00000047761456827402979340000010252771297765756331_);">
					<path d="M36.3,252.3c0-7.1,4.1-13.6,10.7-16.8l0.1-0.1l60.2-22.3l0,0c2.1-0.8,4.4-1.2,6.8-1.2c5.6,0,10.4,2.8,13.2,7v-49.3
						l-57,21.4v28.1c0,0.6-0.6,1.2-1.2,1.2s-1.2-0.6-1.2-1.2v-28.9c0-0.5,0.3-0.9,0.8-1.1l59.4-22.3c0.1-0.1,0.3-0.1,0.4-0.1h18.2
						c0.6,0,1.2,0.6,1.2,1.2v57.3c0,12.8-8.7,23.7-20.7,27.3l-59.6,21.9c-0.1,0-0.1,0-0.1,0.1c-2.5,0.6-5,1-7.6,1
						C47,275.5,36.3,265.1,36.3,252.3z M145.5,225.3v-56.1h-15.8v58c0,6.9-5.7,12.4-12.8,12.4c-0.6,0-1.2-0.6-1.2-1.2
						c0-0.6,0.6-1.2,1.2-1.2c5.7,0,10.3-4.5,10.3-10c0-7.1-5.9-12.8-13.2-12.8c-9.3,0-16.8,7.3-16.8,16.3c0,11.4,9.5,20.7,21.3,20.7
						C133.5,251.4,145.5,239.7,145.5,225.3z M66.9,272.2l50.1-18.4c-12.4-0.8-22.2-10.9-22.2-23.1c0-4.6,1.7-8.8,4.5-12L48,237.8
						c-5.7,2.8-9.2,8.4-9.2,14.6c0,11.4,9.6,20.7,21.3,20.7C62.4,273.1,64.7,272.7,66.9,272.2z"/>
				</g>
			</g>
		</g>
	</g>
	<path d="M48.4,246.4c-0.2-0.6,0.1-1.3,0.7-1.5L86.6,231c0.6-0.2,1.4,0.1,1.6,0.7c0.1,0.1,0.1,0.3,0.1,0.4c0,0.5-0.3,0.9-0.8,1.1
		L50,247.1C49.4,247.3,48.7,247,48.4,246.4z"/>
	<g>
		<g>
			<g>
				<defs>
					<rect id="SVGID_00000132067765712787902660000010974802856840019594_" x="54.8" y="204.3" width="111.8" height="108.6"/>
				</defs>
				<clipPath id="SVGID_00000014594923878282214850000017321098870333551280_">
					<use xlink:href="#SVGID_00000132067765712787902660000010974802856840019594_"  style="overflow:visible;"/>
				</clipPath>
				<g style="clip-path:url(#SVGID_00000014594923878282214850000017321098870333551280_);">
					<path d="M165.3,204.3h-18.2c-0.1,0-0.3,0-0.4,0.1c0,0-0.2,0.1-0.6,0.3c0.3,0.8,0.2,1.8-0.1,2.6l0,0v49.3c-2.8-4.2-7.6-7-13.2-7
						c-2.4,0-4.7,0.4-6.8,1.2l0,0l-60.2,22.3c0,0-0.1,0-0.1,0.1C59.1,276.4,55,282.8,55,290c0,12.8,10.7,23.1,23.8,23.1
						c2.5,0,5.1-0.4,7.6-1c0.1,0,0.1,0,0.1-0.1l59.5-22c12-3.6,20.7-14.5,20.7-27.3v-57.3C166.5,204.8,165.9,204.3,165.3,204.3z
						 M85.4,309.6c-2.2,0.6-4.5,0.8-6.9,0.8c-11.8,0-21.3-9.3-21.3-20.7c0-6.2,3.5-11.8,9.2-14.6l51.3-19c-2.8,3.3-4.5,7.4-4.5,12.1
						c0,12.2,9.8,22.2,22.2,23.1L85.4,309.6z M164.1,262.7c0,14.4-12.1,26.2-27,26.2c-11.8,0-21.3-9.3-21.3-20.7
						c0-9,7.5-16.3,16.8-16.3c7.3,0,13.2,5.7,13.2,12.8c0,5.5-4.6,10-10.3,10c-0.6,0-1.2,0.6-1.2,1.2s0.6,1.2,1.2,1.2
						c7.1,0,12.8-5.5,12.8-12.4v-58H164L164.1,262.7L164.1,262.7z"/>
					<path d="M127.3,214.1l2.4-0.9c-0.3-0.8-0.4-1.8-0.1-2.5c-0.8,0.3-1.5,0.6-2.3,0.8"/>
					<path d="M123.9,215.4"/>
					<line class="st2" x1="121.2" y1="216.4" x2="123.9" y2="215.4"/>
					<path d="M121.2,216.4"/>
					<path d="M98.4,225"/>
					<path d="M100,221.8"/>
					<path d="M118.1,215"/>
					<path d="M121.4,213.8c-1.1,0.4-2.2,0.8-3.3,1.3"/>
				</g>
			</g>
		</g>
	</g>
	<path d="M66.9,283.8c-0.2-0.6,0.1-1.3,0.7-1.5l37.4-13.9c0.6-0.2,1.4,0.1,1.6,0.7c0.1,0.1,0.1,0.3,0.1,0.4c0,0.5-0.3,0.9-0.8,1.1
		l-37.5,13.9C67.9,284.7,67.2,284.4,66.9,283.8z"/>
</g>
</svg>
